<!--?xml version="1.0" standalone="no"?-->
              <svg id="sw-js-blob-svg" viewBox="0 0 100 100" xmlns="http://www.w3.org/2000/svg" version="1.1">
                    <defs> 
                        <linearGradient id="sw-gradient" x1="0" x2="1" y1="1" y2="0">
                            <stop id="stop1" stop-color="rgba(248, 117, 55, 1)" offset="0%"></stop>
                            <stop id="stop2" stop-color="rgba(251, 168, 31, 1)" offset="100%"></stop>
                        </linearGradient>
                    </defs>
                <path fill="url(#sw-gradient)" d="M20.6,-23.7C27.9,-18.4,35.8,-13.1,37.9,-6C40,1.1,36.3,10,30.9,16.6C25.6,23.3,18.7,27.7,11.2,30.2C3.7,32.7,-4.3,33.1,-11.4,30.8C-18.6,28.4,-24.9,23.2,-29.8,16.4C-34.6,9.6,-38,1.1,-36,-5.7C-34,-12.5,-26.5,-17.6,-19.6,-22.9C-12.7,-28.2,-6.4,-33.6,0.2,-33.8C6.7,-34,13.3,-28.9,20.6,-23.7Z" width="100%" height="100%" transform="translate(50 50)" stroke-width="0" style="transition: all 0.3s ease 0s;"></path>
              </svg>